<svg xmlns="http://www.w3.org/2000/svg" viewBox="0 0 102.88 114.95"><defs><style>.cls-1{fill:#007aff;}</style></defs><g id="Layer_2" data-name="Layer 2"><g id="Messaging"><path class="cls-1" d="M0,12.54v89.87a12.53,12.53,0,0,0,18.79,10.85L96.61,68.33a12.52,12.52,0,0,0,0-21.7L18.79,1.7A12.52,12.52,0,0,0,0,12.54Zm12.94,40.2,8.71-4.87V38.34a5.42,5.42,0,0,1,8.07-4.73l8.75,4.88,8.74-4.88a5.42,5.42,0,0,1,8.07,4.73v9.53L64,52.74a5.42,5.42,0,0,1,0,9.47l-8.72,4.87v9.53a5.43,5.43,0,0,1-8.07,4.74l-8.74-4.88-8.75,4.88a5.43,5.43,0,0,1-8.07-4.74V67.08l-8.71-4.87A5.42,5.42,0,0,1,12.94,52.74Z"/></g></g></svg>