<svg xmlns="http://www.w3.org/2000/svg" viewBox="0 0 350 300"><defs><style>.cls-1{fill:#007aff;}.cls-2{font-size:44.62px;font-family:MyriadHebrew-Regular, Myriad Hebrew;}.cls-2,.cls-4{fill:#fff;}.cls-3{fill:none;stroke:#fff;stroke-miterlimit:10;stroke-width:5px;}</style></defs><g id="Layer_2" data-name="Layer 2"><g id="NoApartmentHP"><rect class="cls-1" width="350" height="300" rx="14.97"/><text class="cls-2" transform="translate(118.81 205.89) scale(1.01 1)">Create<tspan x="-46.27" y="53.54">Apartment</tspan></text><path class="cls-3" d="M252,98.61,181.31,22,110.64,98.61h18.11V142.7c0,3.23,4.22,5.87,9.38,5.87h89.36c5.16,0,9.38-2.64,9.38-5.87V98.61Z"/><path class="cls-4" d="M162.47,126.7h37.68a4,4,0,0,0,4-3.92V85.59a4,4,0,0,0-4-3.92H162.47a4,4,0,0,0-4,3.92v37.19A4,4,0,0,0,162.47,126.7Zm-1.55-27.21h15.82V83.87h9.51V99.49h15.82v9.38H186.25v15.62h-9.51V108.87H160.92Z"/></g></g></svg>