<svg xmlns="http://www.w3.org/2000/svg" viewBox="0 0 278.71 242.04"><defs><style>.cls-1{fill:#007aff;}.cls-2{font-size:36px;font-family:MyriadHebrew-Regular, Myriad Hebrew;}.cls-2,.cls-3{fill:#fff;}</style></defs><g id="Layer_2" data-name="Layer 2"><g id="HomePage_-_Screen" data-name="HomePage - Screen"><rect class="cls-1" width="278.71" height="242.04" rx="12"/><text class="cls-2" transform="translate(92.61 203.55)">Wallet</text><path class="cls-3" d="M141.12,86.69a27,27,0,0,0-.31,25.32A27,27,0,0,0,141.12,86.69Z"/><path class="cls-3" d="M139.35,44.67A54.68,54.68,0,1,0,194,99.35,54.68,54.68,0,0,0,139.35,44.67Zm5,72.59a27.3,27.3,0,0,1-3.56-5.25,26.91,26.91,0,0,1-39.92,8.44A25,25,0,0,0,112.2,72.62a26.92,26.92,0,0,1,28.92,14.07,26.58,26.58,0,0,1,6-7.39,26.86,26.86,0,0,1,26.36-5.1,25,25,0,0,0,4.36,49A26.93,26.93,0,0,1,144.37,117.26Z"/></g></g></svg>