<svg xmlns="http://www.w3.org/2000/svg" xmlns:xlink="http://www.w3.org/1999/xlink" viewBox="0 0 1921.55 1922.33"><defs><style>.cls-1{fill:none;}.cls-2{clip-path:url(#clip-path);}.cls-3{opacity:0.05;}.cls-4{font-size:547.86px;}.cls-4,.cls-5,.cls-6{fill:#fff;}.cls-4,.cls-5{font-family:Calibri-Bold, Calibri;font-weight:700;}.cls-5{font-size:507.28px;}</style><clipPath id="clip-path" transform="translate(377.7 95.9)"><rect class="cls-1" width="1080" height="1631"/></clipPath></defs><g id="Layer_2" data-name="Layer 2"><g id="LOGO"><g class="cls-2"><g class="cls-3"><text class="cls-4" transform="translate(315.43 1786.8) rotate(-44.88)">R</text><text class="cls-4" transform="translate(525.62 1583.14) rotate(-44.88)">O</text><text class="cls-4" transform="translate(1631.72 474.43) rotate(-44.88)">s</text><text class="cls-5" transform="translate(1024.68 1074.15) rotate(-44.88)">M</text><text class="cls-4" transform="translate(776.53 1333.27) rotate(-44.88)">O</text><path d="M1012.38,432.12a180,180,0,0,1-174.07,46.27,180.13,180.13,0,0,0,301.14,81.33c70.48-70.18,70.71-184.2.53-254.68a179.21,179.21,0,0,0-80.61-46.79A180,180,0,0,1,1012.38,432.12Z" transform="translate(377.7 95.9)"/><path d="M845,264.08a180,180,0,0,1,174.07-46.27A180.08,180.08,0,1,0,798,438,180,180,0,0,1,845,264.08Z" transform="translate(377.7 95.9)"/><path class="cls-6" d="M995.64,415.32a144,144,0,0,1-139.25,37,144.06,144.06,0,1,0,176.84-176.12A144,144,0,0,1,995.64,415.32Z" transform="translate(377.7 95.9)"/><path class="cls-6" d="M861.77,280.89a144,144,0,0,1,139.25-37A144.07,144.07,0,1,0,824.17,420,144,144,0,0,1,861.77,280.89Z" transform="translate(377.7 95.9)"/><path d="M982.26,401.87a115.2,115.2,0,0,1-111.41,29.62,115.25,115.25,0,1,0,141.48-140.9A115.21,115.21,0,0,1,982.26,401.87Z" transform="translate(377.7 95.9)"/><path d="M875.15,294.33a115.22,115.22,0,0,1,111.41-29.61A115.26,115.26,0,1,0,845.08,405.61,115.22,115.22,0,0,1,875.15,294.33Z" transform="translate(377.7 95.9)"/><path class="cls-6" d="M971.54,391.12a92.16,92.16,0,0,1-89.12,23.69A92.21,92.21,0,1,0,995.6,302.1,92.15,92.15,0,0,1,971.54,391.12Z" transform="translate(377.7 95.9)"/><path class="cls-6" d="M885.86,305.08A92.2,92.2,0,0,1,975,281.39,92.21,92.21,0,1,0,861.8,394.11,92.19,92.19,0,0,1,885.86,305.08Z" transform="translate(377.7 95.9)"/></g></g></g></g></svg>