<svg xmlns="http://www.w3.org/2000/svg" viewBox="0 0 385.93 133.28"><defs><style>.cls-1{font-size:97.86px;}.cls-1,.cls-2,.cls-3{fill:#fff;}.cls-1,.cls-2{font-family:Calibri-Bold, Calibri;font-weight:700;}.cls-2{font-size:90.61px;}</style></defs><g id="Layer_2" data-name="Layer 2"><g id="HomePage_-_Screen" data-name="HomePage - Screen"><text class="cls-1" transform="translate(0.44 98.39)">R</text><text class="cls-1" transform="translate(52.72 99.11)">O</text><text class="cls-1" transform="translate(332.46 98.2)">s</text><text class="cls-2" transform="translate(180.04 97.59)">M</text><text class="cls-1" transform="translate(115.97 99.11)">O</text><path d="M295.12,74.53a32.16,32.16,0,0,1-27.86-16.08,32.17,32.17,0,1,0,55.73,0A32.18,32.18,0,0,1,295.12,74.53Z"/><path d="M295.12,32.17A32.18,32.18,0,0,1,323,48.25a32.18,32.18,0,1,0-55.73,0A32.16,32.16,0,0,1,295.12,32.17Z"/><path class="cls-3" d="M295.12,70.29a25.73,25.73,0,0,1-22.29-12.86,25.74,25.74,0,1,0,44.58,0A25.71,25.71,0,0,1,295.12,70.29Z"/><path class="cls-3" d="M295.12,36.4a25.72,25.72,0,0,1,22.29,12.87,25.73,25.73,0,1,0-44.58,0A25.74,25.74,0,0,1,295.12,36.4Z"/><path d="M295.12,66.9a20.58,20.58,0,0,1-17.83-10.29,20.59,20.59,0,1,0,35.66,0A20.58,20.58,0,0,1,295.12,66.9Z"/><path d="M295.12,39.79A20.57,20.57,0,0,1,313,50.09a20.59,20.59,0,1,0-35.66,0A20.57,20.57,0,0,1,295.12,39.79Z"/><path class="cls-3" d="M295.12,64.19A16.45,16.45,0,0,1,280.86,56a16.29,16.29,0,0,0-2.21,8.23A16.47,16.47,0,1,0,309.39,56,16.47,16.47,0,0,1,295.12,64.19Z"/><path class="cls-3" d="M295.12,42.5a16.48,16.48,0,0,1,14.27,8.24,16.48,16.48,0,1,0-28.53,0A16.46,16.46,0,0,1,295.12,42.5Z"/></g></g></svg>