<svg xmlns="http://www.w3.org/2000/svg" viewBox="0 0 2856 2443.69"><defs><style>.cls-1{font-size:636.85px;}.cls-1,.cls-2{font-family:Calibri-Bold, Calibri;font-weight:700;}.cls-2{font-size:589.68px;}.cls-3,.cls-4{stroke:#000;stroke-miterlimit:10;stroke-width:2px;}.cls-4{fill:#fff;}.cls-5{fill:#5ac8fa;}</style></defs><g id="Layer_2" data-name="Layer 2"><g id="LOGO"><text class="cls-1" transform="translate(240.05 1440.29)">R</text><text class="cls-1" transform="translate(580.22 1444.96)">O</text><text class="cls-1" transform="translate(2400.71 1439.06)">s</text><text class="cls-2" transform="translate(1408.79 1435.09)">M</text><text class="cls-1" transform="translate(991.85 1444.96)">O</text><path class="cls-3" d="M2157.72,1285a209.24,209.24,0,0,1-181.32-104.67,208.39,208.39,0,0,0-28,104.67c0,115.61,93.72,209.33,209.33,209.33s209.34-93.72,209.34-209.33a208.39,208.39,0,0,0-28-104.67A209.24,209.24,0,0,1,2157.72,1285Z"/><path class="cls-3" d="M2157.72,1009.32A209.23,209.23,0,0,1,2339.05,1114a208.36,208.36,0,0,0,28-104.66c0-115.62-93.72-209.34-209.34-209.34s-209.33,93.72-209.33,209.34a208.36,208.36,0,0,0,28,104.66A209.23,209.23,0,0,1,2157.72,1009.32Z"/><path class="cls-4" d="M2157.72,1257.42a167.42,167.42,0,0,1-145.06-83.73,167.47,167.47,0,1,0,290.13,0A167.42,167.42,0,0,1,2157.72,1257.42Z"/><path class="cls-4" d="M2157.72,1036.88a167.41,167.41,0,0,1,145.07,83.74,167.47,167.47,0,1,0-290.13,0A167.41,167.41,0,0,1,2157.72,1036.88Z"/><path class="cls-3" d="M2157.72,1235.37a133.9,133.9,0,0,1-116-67,134,134,0,1,0,232.09,0A133.91,133.91,0,0,1,2157.72,1235.37Z"/><path class="cls-3" d="M2157.72,1058.94a133.92,133.92,0,0,1,116.05,67,134,134,0,1,0-232.09,0A133.91,133.91,0,0,1,2157.72,1058.94Z"/><path class="cls-4" d="M2157.72,1217.73a107.13,107.13,0,0,1-92.83-53.59,107.18,107.18,0,1,0,185.67,0A107.14,107.14,0,0,1,2157.72,1217.73Z"/><path class="cls-4" d="M2157.72,1076.58a107.11,107.11,0,0,1,92.84,53.59,107.18,107.18,0,1,0-185.67,0A107.11,107.11,0,0,1,2157.72,1076.58Z"/><path class="cls-5" d="M2763.05,1221.85c60.06-157.79,92.95-329,92.95-507.85,0-260.11-69.56-504-191.06-714a1435.23,1435.23,0,0,1-497.47,507.83C2437.68,671.71,2649.2,922.7,2763.05,1221.85Z"/><path class="cls-5" d="M93,1221.85C32.89,1379.63,0,1550.82,0,1729.69c0,260.11,69.56,504,191.06,714a1435.12,1435.12,0,0,1,497.47-507.82C418.32,1772,206.8,1521,93,1221.85Z"/></g></g></svg>